<mxfile host="app.diagrams.net" modified="2023-05-17T07:09:52.888Z" agent="Mozilla/5.0 (Windows NT 10.0; Win64; x64) AppleWebKit/537.36 (KHTML, like Gecko) Chrome/112.0.0.0 Safari/537.36" version="21.3.2" etag="4OQfqj8jtCSuOlsahR2c" type="github">
  <diagram name="第 1 页" id="awRxUmMtibbGsDg4lnqW">
    <mxGraphModel>
      <root>
        <mxCell id="0" />
        <mxCell id="1" parent="0" />
      </root>
    </mxGraphModel>
  </diagram>
</mxfile>
